<?xml version="1.0" encoding="UTF-8" standalone="no"?>
<!DOCTYPE svg PUBLIC "-//W3C//DTD SVG 1.1//EN" "http://www.w3.org/Graphics/SVG/1.1/DTD/svg11.dtd">
<svg width="100%" height="100%" viewBox="0 0 1200 1200" version="1.1" xmlns="http://www.w3.org/2000/svg" xmlns:xlink="http://www.w3.org/1999/xlink" xml:space="preserve" xmlns:serif="http://www.serif.com/" style="fill-rule:evenodd;clip-rule:evenodd;stroke-linejoin:round;stroke-miterlimit:2;">
    <g transform="matrix(1.51797,0,0,1.51797,-643.383,-502.678)">
        <path d="M673.276,789.186C694.331,787.164 756.061,792.131 758.165,792.536C777.058,796.17 784.077,819.512 776.655,832.871C746.888,886.443 655.246,864.865 638.243,873.519C614.801,885.45 700.399,882.582 703.426,882.617C717.507,882.78 711.571,889.016 709.829,893.547C704.332,907.841 721.473,916.55 722.115,908.333C722.728,900.481 713.884,895.231 728.693,889.881C752.831,881.161 761.547,906.302 762.57,909.252L762.342,914.198C758.73,927.647 758.585,927.501 758.409,928.689C757.279,927.6 755.372,931.971 754.242,930.882C751.016,927.772 751.027,922.357 748.219,918.866C743.077,912.473 725.094,925.46 731.55,928.63C733.653,929.663 736.302,925.805 738.365,926.914C743.183,929.504 739.612,932.247 744.067,935.36C746.284,936.909 746.055,932.288 748.556,934.036C681.29,950.43 678.527,947.505 677.58,953.312C675.017,969.022 736.803,948.141 748.116,950.088C780.668,955.691 780.418,956.574 813.326,952.495C860.001,946.71 862.535,948.417 894.385,935.026C902.308,930.315 902.19,930.734 909.437,925.018C947.926,891.731 935.668,883.589 932.392,758.428C929.657,653.927 924.714,652.459 930.677,645.692C946.007,628.294 922.736,624.961 917.046,558.341C911.426,492.541 976.717,483.035 976.421,523.105C976.119,563.94 985.017,613.318 982.102,658.18C977.247,732.905 978.695,733.083 974.655,743.878C968.808,759.5 1002.18,784.624 975.561,844.696C974.147,847.887 996.432,899.469 1030.93,936.483C1040.15,946.375 1095.12,995.314 1126.98,1020.88C1142.08,1032.99 1130.36,1040.41 1113.45,1058.4C1075.29,1099 1067.53,1088.4 903.571,1090.08C868.19,1090.45 870.014,1083.04 845.112,1058C846.56,1057.07 845.976,1054.31 847.424,1053.38C863.169,1043.27 885.639,1045.01 926.077,984.76C927.386,982.81 951.753,946.505 933.114,956.256C923.336,961.372 901.135,1022.62 838.463,1044.71C826.01,1049.1 818.86,1032.39 808.459,1032.58C795.325,1032.82 794.146,1035.34 784.692,1026.52C779.777,1021.94 774.507,1037.13 704.579,1001.24C616.854,956.221 598.522,956.392 607.683,893.464C609.194,883.086 597.009,825.015 595.772,819.12C600.577,821.563 600.74,816.015 605.548,818.459C609.341,820.387 604.828,823.112 608.211,825.443C610.956,827.335 613.147,819.175 613.326,818.51C613.749,816.935 617.468,803.088 616.869,798.435C616.53,795.799 612.463,794.663 612.124,792.028C623.524,787.731 623.821,789.647 673.274,789.187L673.276,789.186Z" style="fill:rgb(240,79,35);"/>
    </g>
    <g transform="matrix(1.51797,0,0,1.51797,-643.383,-502.678)">
        <path d="M748.78,446.534C758.588,446.542 768.396,446.551 778.204,446.559C781.137,447.036 778.666,454.324 781.599,454.801C794.704,456.934 918.677,437.144 921.81,448.479C930.724,480.728 897.989,497.432 912.272,598.349C914.687,615.411 920.281,654.934 921.457,813.556C921.747,852.653 902.909,840.074 838.181,852.599C840.345,854.04 836.921,859.078 847.992,859.131C866.258,859.219 866.744,859.118 878.79,869.642C873.851,871.495 868.913,873.347 863.974,875.2C860.596,874.568 861.201,867.557 857.823,866.924C850.803,865.61 851.523,872.953 768.68,871.825C735.45,871.373 804.104,845.495 786.607,805.25C771.159,769.717 687.232,793.853 690.482,763.407C692.457,744.906 787.546,763.118 767.677,703.559C759.797,679.936 739.056,676.546 728.386,672.168L718.522,667.465C672.545,660.706 661.4,657.247 661.565,592.812C667.407,551.91 668.422,549.87 649.463,527.159C638.126,513.578 633.569,468.245 633.039,462.971C635.08,461.526 637.121,460.081 639.161,458.635C641.99,459.429 641.299,460.399 644.271,460.069C660.728,458.245 741.342,455.587 744.773,454.968C754.15,453.277 748.562,446.992 748.78,446.534Z" style="fill:rgb(240,92,51);"/>
    </g>
    <g transform="matrix(1.51797,0,0,1.51797,-643.383,-502.678)">
        <path d="M883.619,818.642C872.81,838.092 845.239,838.5 797.383,844.859C794.671,836.087 819.956,771.287 728.465,771.769C726.804,771.778 686.428,771.99 709.067,764.355C713.789,762.762 796.985,768.5 778.756,703.236C758.025,629.011 674.336,684.942 672.884,613.239C671.913,565.324 690.055,558.682 660.127,521.737C654.546,514.848 638.39,470.49 653.579,469.627C673.944,468.471 905.31,455.333 908.307,458.378C920.246,470.507 891.269,473.502 900.814,608.089C901.977,624.492 908.745,719.921 909.059,813.482C909.126,833.316 901.276,838.298 886.43,825.598C887.668,819.037 895.248,816.142 888.323,815.57C885.076,815.302 886.796,818.903 883.62,818.641L883.619,818.642Z" style="fill:rgb(254,254,254);"/>
    </g>
    <g transform="matrix(1.51797,0,0,1.51797,-643.383,-502.678)">
        <path d="M773.703,400.136L788.489,398.499C798.489,397.281 909.989,383.699 914.271,392.543C914.953,393.952 925.456,426.465 908.982,429.478C854.801,439.39 818.654,442.665 778.204,446.558C768.396,446.55 758.588,446.541 748.78,446.533C693.646,446.742 694.202,447.371 639.261,451.306L634.829,451.569C632.308,448.423 614.091,425.698 627.226,401.754C630.502,404.346 633.778,406.938 637.054,409.531C646.78,412.845 647.101,411.571 773.702,400.136L773.703,400.136Z" style="fill:rgb(239,79,35);"/>
    </g>
    <g transform="matrix(1.51797,0,0,1.51797,-643.383,-502.678)">
        <path d="M718.523,667.466L728.387,672.169C716.387,684.97 715.5,683.267 698.079,687.738C672.571,694.285 682.26,729.979 691.159,716.821C696.552,708.847 689.639,698.419 718.08,695.472C731.54,694.077 731.282,696.478 739.346,707.57C743.803,719.287 744.417,718.915 755.48,724.744C736.019,742.526 721.81,715.391 709.05,738.738C705.088,745.988 662.673,745.257 658.605,745.187C657.757,745.172 622.906,754.761 656.67,755.606C667.064,755.866 677.909,771.275 679.224,773.144C677.814,774.205 679.441,777.24 678.031,778.301C676.492,779.459 641.424,778.53 638.242,778.446C617.966,777.909 601.112,753.902 581.41,734.237C601.171,722.46 592.99,717.291 594.79,694.082C597.03,665.211 711.201,675.502 713.249,674.902C716.166,674.048 715.606,668.319 718.523,667.465L718.523,667.466Z" style="fill:rgb(240,80,36);"/>
    </g>
    <g transform="matrix(1.51797,0,0,1.51797,-643.383,-502.678)">
        <path d="M878.79,869.643C905.164,857.462 905.101,857.742 907.274,856.487C926.522,845.377 921.919,861.561 924.987,883.369C926.739,895.822 921.167,893.581 908.905,895.426C902.189,896.437 827.306,907.708 825.454,911.052C820.336,920.294 852.434,916.487 854.801,916.206C857.3,924.445 858.069,923.851 858.192,932.848C799.207,942.336 770.838,949.584 764.317,933.229C768.958,923.398 769.754,923.998 771.744,912.962L772.056,903.138C772.681,899.796 771.889,884.166 783.217,882.88C823.322,878.328 823.541,882.782 863.974,875.201C868.913,873.348 873.851,871.496 878.79,869.643Z" style="fill:rgb(239,79,35);"/>
    </g>
    <g transform="matrix(1.51797,0,0,1.51797,-643.383,-502.678)">
        <path d="M638.75,536.09C678.53,574.072 635.96,584.954 630.12,594.024C623.11,604.909 651.627,598.069 653.464,597.628C652.232,605.59 650.958,608.119 650.538,608.955C637.639,634.567 655.93,636.118 653.654,653.346C653.265,656.291 644.621,672.202 620.428,636.775C568.501,560.737 581.625,550.846 599.437,534.805C617.142,518.862 621.585,519.97 638.75,536.09Z" style="fill:rgb(240,84,41);"/>
    </g>
    <g transform="matrix(1.51797,0,0,1.51797,-643.383,-502.678)">
        <path d="M758.408,928.688L764.317,933.229C770.838,949.583 799.207,942.336 858.192,932.848C885.892,927.76 885.693,926.983 888.096,927.355C891.363,927.86 891.118,934.519 894.385,935.024C862.536,948.415 860.001,946.708 813.326,952.493C780.417,956.572 780.668,955.688 748.116,950.086C736.803,948.139 675.017,969.02 677.58,953.31C678.527,947.503 681.29,950.428 748.556,934.034C751.84,932.252 755.124,930.47 758.408,928.688Z" style="fill:rgb(254,245,242);"/>
    </g>
    <g transform="matrix(1.51797,0,0,1.51797,-643.383,-502.678)">
        <path d="M729.259,373.362C732.026,371.584 730.935,362.068 863.561,362.119C883.425,362.127 873.455,371.239 872.64,371.931C865.663,377.862 864.737,374.377 758.265,376.357C735.01,377.943 734.964,378.987 733.173,378.068C730.106,376.494 732.139,374.84 729.259,373.362Z" style="fill:rgb(239,78,34);"/>
    </g>
    <g transform="matrix(1.51797,0,0,1.51797,-643.383,-502.678)">
        <path d="M683.322,388.777C696.633,387.774 709.943,386.771 723.254,385.768L728.194,386.037C729.889,386.021 749.382,385.838 749.382,385.838C751.642,386.672 751.029,391.085 753.289,391.919C722.315,395.081 645.363,401.17 643.148,402.749C640.673,404.513 639.53,407.766 637.055,409.53C633.779,406.938 630.503,404.346 627.227,401.753C645.661,384.798 671.699,389.656 683.322,388.775L683.322,388.777Z" style="fill:rgb(240,97,58);"/>
    </g>
    <g transform="matrix(1.51797,0,0,1.51797,-643.383,-502.678)">
        <path d="M748.78,446.534C748.562,446.993 754.15,453.277 744.773,454.968C741.342,455.587 660.728,458.245 644.271,460.069C641.299,460.398 641.99,459.429 639.161,458.635L639.261,451.307C694.201,447.372 693.646,446.743 748.78,446.534Z" style="fill:rgb(249,217,207);"/>
    </g>
    <g transform="matrix(1.51797,0,0,1.51797,-643.383,-502.678)">
        <path d="M620.043,534.746C623.509,535.84 626.975,536.935 630.441,538.029L631.614,542.566C631.284,545.863 627.618,582.524 623.211,583.125C607.352,585.285 628.967,533.146 614.272,550.534C606.569,559.648 601.381,569.623 600.499,557.549C599.533,544.339 617.867,535.765 620.044,534.747L620.043,534.746Z" style="fill:rgb(251,232,226);"/>
    </g>
    <g transform="matrix(1.51797,0,0,1.51797,-643.383,-502.678)">
        <path d="M854.801,916.206C857.654,916.639 860.248,913.315 863.101,913.749C864.707,913.993 864.406,916.898 865.711,917.864C874.998,924.739 899.44,914.731 903.557,917.732C906.079,919.57 906.915,923.179 909.437,925.017C902.19,930.733 902.307,930.314 894.385,935.025C891.118,934.52 891.363,927.861 888.096,927.356C885.692,926.984 885.891,927.761 858.192,932.849C858.07,923.852 857.301,924.446 854.801,916.207L854.801,916.206Z" style="fill:rgb(245,170,147);"/>
    </g>
    <g transform="matrix(1.51797,0,0,1.51797,-643.383,-502.678)">
        <path d="M714.227,799.699C740.856,797.84 771.884,793.425 768.038,823.369C766.75,833.394 760.417,833.084 759.342,828.011C754.916,807.133 750.207,808.839 728.613,807.145C722.823,805.353 723.181,805.515 717.242,805.019L714.227,799.698L714.227,799.699Z" style="fill:rgb(249,195,178);"/>
    </g>
    <g transform="matrix(1.51797,0,0,1.51797,-643.383,-502.678)">
        <path d="M701.874,812.63C705.831,814.336 705.7,810.718 709.424,812.323C709.943,812.547 709.424,812.323 712.396,818.736C719.724,845.936 751.368,828.992 742.018,842.725C737.657,849.131 718.887,844.497 714.463,841.723C697.615,831.161 701.856,813.962 701.874,812.63Z" style="fill:rgb(250,203,187);"/>
    </g>
    <g transform="matrix(1.51797,0,0,1.51797,-643.383,-502.678)">
        <path d="M612.126,792.027C612.465,794.663 616.532,795.799 616.871,798.434C617.469,803.087 613.751,816.934 613.328,818.509C613.149,819.175 610.958,827.334 608.213,825.442C604.83,823.111 609.343,820.386 605.55,818.458C600.742,816.014 600.58,821.562 595.774,819.119C595.048,805.562 593.629,799.392 612.127,792.027L612.126,792.027Z" style="fill:rgb(242,104,65);"/>
    </g>
    <g transform="matrix(1.51797,0,0,1.51797,-643.383,-502.678)">
        <path d="M739.345,707.57C745.519,711.493 749.664,716.288 749.044,708.643C746.743,680.254 758.967,707.365 759.123,708.157C760.852,716.948 759.66,716.785 755.48,724.744C744.416,718.914 743.802,719.286 739.346,707.57L739.345,707.57Z" style="fill:rgb(242,125,92);"/>
    </g>
    <g transform="matrix(1.51797,0,0,1.51797,-643.383,-502.678)">
        <path d="M869.79,698.201C870.084,667.219 886.851,712.176 887.514,713.953C884.535,713.766 881.557,713.578 878.578,713.391L869.79,698.201Z" style="fill:rgb(248,200,183);"/>
    </g>
    <g transform="matrix(1.51797,0,0,1.51797,-643.383,-502.678)">
        <path d="M758.408,928.688C755.124,930.47 751.84,932.252 748.556,934.034C746.055,932.286 746.283,936.907 744.067,935.358C739.612,932.245 743.182,929.502 738.365,926.912C736.302,925.803 733.653,929.661 731.55,928.628C725.094,925.458 743.077,912.471 748.219,918.864C751.027,922.355 751.017,927.771 754.242,930.88C755.372,931.969 757.279,927.598 758.409,928.687L758.408,928.688Z" style="fill:rgb(244,129,95);"/>
    </g>
    <g transform="matrix(1.51797,0,0,1.51797,-643.383,-502.678)">
        <path d="M579.177,694.51L583.815,696.128C581.229,705.516 578.643,714.903 576.057,724.291C574.589,710.357 572.63,710.032 579.176,694.51L579.177,694.51Z" style="fill:rgb(241,113,77);"/>
    </g>
    <g transform="matrix(1.51797,0,0,1.51797,-643.383,-502.678)">
        <path d="M680.608,380.766C679.302,380.419 650.675,372.802 668.597,368.893C677.379,366.978 700.35,372.771 680.608,380.766Z" style="fill:rgb(242,135,105);"/>
    </g>
    <g transform="matrix(1.51797,0,0,1.51797,-643.383,-502.678)">
        <path d="M825.686,576.119C825.251,574.56 816.472,543.095 829.836,556.315C833.631,560.07 832.274,571.2 832.116,572.498C831.552,577.119 830.153,576.024 825.685,576.119L825.686,576.119Z" style="fill:rgb(244,181,162);"/>
    </g>
    <g transform="matrix(1.51797,0,0,1.51797,-643.383,-502.678)">
        <path d="M762.342,914.197C765.476,913.785 768.61,913.374 771.744,912.962C769.755,923.999 768.959,923.398 764.317,933.229L758.408,928.688C758.584,927.5 758.729,927.647 762.341,914.197L762.342,914.197Z" style="fill:rgb(244,145,116);"/>
    </g>
    <g transform="matrix(1.51797,0,0,1.51797,-643.383,-502.678)">
        <path d="M819.585,603.786C828.766,603.244 831.384,604.485 829.363,613.689C827.845,620.602 818.856,622.702 818.696,608.217C818.679,606.71 819.602,605.292 819.585,603.785L819.585,603.786Z" style="fill:rgb(244,173,150);"/>
    </g>
    <g transform="matrix(1.51797,0,0,1.51797,-643.383,-502.678)">
        <path d="M838.181,852.599C828.698,862.979 827.433,860.924 813.274,859.834C821.576,857.422 829.879,855.011 838.181,852.599Z" style="fill:rgb(242,151,124);"/>
    </g>
    <g transform="matrix(1.51797,0,0,1.51797,-643.383,-502.678)">
        <path d="M714.227,799.699L717.242,805.02L714.879,809.004C714.052,812.249 713.225,815.493 712.398,818.738C709.426,812.325 709.945,812.549 709.426,812.325C705.703,810.72 705.833,814.338 701.876,812.632C705.344,803.337 706.068,804.024 714.228,799.7L714.227,799.699Z" style="fill:rgb(244,127,92);"/>
    </g>
    <g transform="matrix(1.51797,0,0,1.51797,-643.383,-502.678)">
        <path d="M878.578,713.392C881.557,713.579 884.535,713.767 887.514,713.954C887.59,714.702 888.464,723.304 888.464,723.304C886.467,725.493 876.764,721.82 875.807,721.458L874.7,718.166L878.578,713.392Z" style="fill:rgb(240,146,117);"/>
    </g>
    <g transform="matrix(1.51797,0,0,1.51797,-643.383,-502.678)">
        <path d="M869.79,698.201L878.578,713.391L874.7,718.165C872.823,714.016 867.314,712.272 865.437,708.122C865.437,708.122 869.442,698.994 869.79,698.201Z" style="fill:rgb(252,235,229);"/>
    </g>
    <g transform="matrix(1.51797,0,0,1.51797,-643.383,-502.678)">
        <path d="M837.302,692.679C821.459,691.792 830.321,675.152 836.36,680.304C840.715,684.018 838.088,684.822 837.302,692.679Z" style="fill:rgb(251,214,202);"/>
    </g>
    <g transform="matrix(1.51797,0,0,1.51797,-643.383,-502.678)">
        <path d="M1033.7,873.779C1048.73,883.662 1034.51,884.206 1033.68,884.19C1018.5,883.887 1033.01,874.24 1033.7,873.779Z" style="fill:rgb(236,142,113);"/>
    </g>
    <g transform="matrix(1.51797,0,0,1.51797,-643.383,-502.678)">
        <path d="M834.131,710.679C839.991,712.874 841.02,713.062 839.705,719.108C838.717,723.649 820.058,720.68 834.131,710.679Z" style="fill:rgb(253,241,236);"/>
    </g>
    <g transform="matrix(1.51797,0,0,1.51797,-643.383,-502.678)">
        <path d="M634.83,451.57L639.262,451.307L639.162,458.635C637.121,460.08 635.08,461.525 633.04,462.971C633.637,459.171 634.234,455.37 634.831,451.57L634.83,451.57Z" style="fill:rgb(247,200,187);"/>
    </g>
    <g transform="matrix(1.51797,0,0,1.51797,-643.383,-502.678)">
        <path d="M772.055,903.138L771.743,912.962C768.609,913.374 765.475,913.785 762.341,914.197L762.569,909.251C766.304,907.558 766.083,912.14 769.873,910.422C770.427,910.171 770.035,909.882 772.054,903.138L772.055,903.138Z" style="fill:rgb(244,152,125);"/>
    </g>
    <g transform="matrix(1.51797,0,0,1.51797,-643.383,-502.678)">
        <path d="M883.619,818.642C886.795,818.905 885.075,815.303 888.322,815.571C895.247,816.143 887.668,819.038 886.429,825.599L883.619,818.641L883.619,818.642Z" style="fill:rgb(243,170,146);"/>
    </g>
    <g transform="matrix(1.51797,0,0,1.51797,-643.383,-502.678)">
        <path d="M717.241,805.019C723.18,805.516 722.822,805.353 728.612,807.145C715.705,809.055 715.966,808.792 714.877,809.003L717.24,805.019L717.241,805.019Z" style="fill:rgb(242,105,66);"/>
    </g>
    <g transform="matrix(0.452656,0,0,1,-9.7687,-122.093)">
        <path d="M137.911,695.566C239.571,686.293 258.535,691.595 317.869,690.673C447.71,688.655 456.546,688.074 452.862,698.244C450.006,706.129 187.326,739.198 167.951,736.938C155.281,735.46 156.014,743.919 57.564,748.206C38.515,749.036 34.177,737.991 33.991,737.661C14.868,703.64 84.034,703.908 137.91,695.567L137.911,695.566Z" style="fill:rgb(240,81,37);"/>
    </g>
    <g transform="matrix(1,0,0,1,-180.932,-4.89415)">
        <path d="M1299.55,756.636C1225.08,734.024 1226.24,732.123 1153.97,703.028C1123.11,690.606 1087.11,678.058 1094.07,668.495C1098.62,662.24 1282.32,714.577 1318.02,735.156C1318.36,735.347 1354.48,771.258 1299.55,756.635L1299.55,756.636Z" style="fill:rgb(239,80,36);"/>
    </g>
    <g transform="matrix(0.958862,-0.283873,0.283873,0.958862,-291.356,244.247)">
        <path d="M1100.55,522.549C1106.42,508.89 1109.94,513.03 1124.41,510.593C1256.47,488.346 1372.06,450.406 1364.18,483.096C1361.37,494.762 1220.57,521.282 1104.21,526.429C1102.99,525.136 1101.77,523.842 1100.55,522.549Z" style="fill:rgb(240,82,38);"/>
    </g>
    <g transform="matrix(1,0,0,1,-229.905,-173.052)">
        <path d="M428.088,615.254C291.318,605.076 282.764,595.992 274.181,586.877C263.884,575.943 274.655,554.269 297.717,558.848C306.653,560.622 434.507,592.467 442.138,603.806C447.586,611.901 429.517,615.008 428.089,615.254L428.088,615.254Z" style="fill:rgb(239,80,36);"/>
    </g>
    <g transform="matrix(1,0,0,1,-203.431,-66.3938)">
        <path d="M1269.08,595.897C1314.19,598.533 1280.97,617.854 1279.1,618.506C1268.51,622.198 1268.43,620.727 1138.97,615.769C1123.84,615.189 1128.19,602.038 1138.37,601.109C1203.66,595.154 1203.18,593.626 1269.08,595.898L1269.08,595.897Z" style="fill:rgb(239,79,35);"/>
    </g>
    <g transform="matrix(0.94444,-0.328685,0.328685,0.94444,-498.978,98.6352)">
        <path d="M372.365,837.227C323.884,854.101 345.758,819.681 347.882,818.42C349.588,817.407 455.108,773.65 467.07,780.14C484.597,789.648 443.524,806.889 372.365,837.227Z" style="fill:rgb(239,80,36);"/>
    </g>
    <g transform="matrix(1,0,0,1,-267.622,-227.166)">
        <path d="M447.575,514.944C429.065,509.688 429.163,509.789 427.584,509.268C387.422,496.002 387.429,466.711 408.077,465.335C433.936,463.612 537.571,536.734 447.575,514.944Z" style="fill:rgb(239,79,35);"/>
    </g>
</svg>
